<?xml version="1.0" encoding="utf-8"?>
<!-- Generator: Adobe Illustrator 17.0.0, SVG Export Plug-In . SVG Version: 6.00 Build 0)  -->
<!DOCTYPE svg PUBLIC "-//W3C//DTD SVG 1.1//EN" "http://www.w3.org/Graphics/SVG/1.1/DTD/svg11.dtd">
<svg version="1.1" id="Capa_1" xmlns="http://www.w3.org/2000/svg" xmlns:xlink="http://www.w3.org/1999/xlink" x="0px" y="0px"
	 width="410px" height="810.762px" viewBox="0 0 410 810.762" enable-background="new 0 0 410 810.762" xml:space="preserve">
<path fill="#7A1109" d="M363.569,703.017c15.741-27.44,24.742-59.234,24.742-93.137V-1.339H13.321v608.8
	c-0.01,0.8-0.02,1.61-0.02,2.42s0.01,1.62,0.02,2.42c0.497,39.841,13.434,76.67,35.092,106.817h108.615
	c1.323,0,2.396,0.655,2.396,1.464v16.857c0,0.808-1.073,1.464-2.396,1.464H64.783c34.156,36.011,82.464,58.479,136.017,58.479
	c56.14,0,106.52-24.67,140.87-63.76c5.036-5.727,9.72-11.769,14.036-18.082l37.841,46.532l10.862-8.833L363.569,703.017z"/>
</svg>
